<?xml version="1.0" standalone="no"?>
<!DOCTYPE svg PUBLIC "-//W3C//DTD SVG 20010904//EN"
 "http://www.w3.org/TR/2001/REC-SVG-20010904/DTD/svg10.dtd">
<svg version="1.0" xmlns="http://www.w3.org/2000/svg"
 width="512.000000pt" height="512.000000pt" viewBox="0 0 512.000000 512.000000"
 preserveAspectRatio="xMidYMid meet">

<g transform="translate(0.000000,512.000000) scale(0.100000,-0.100000)"
fill="#000000" stroke="none">
<path d="M2382 5069 c-291 -38 -557 -173 -768 -391 -180 -186 -291 -396 -345
-651 -28 -129 -30 -368 -5 -492 9 -44 16 -83 16 -87 0 -4 -132 -8 -292 -10
l-293 -3 -53 -29 c-57 -32 -92 -72 -125 -144 l-22 -47 -3 -1187 -2 -1187 -199
-3 c-197 -3 -200 -3 -227 -28 -50 -46 -54 -71 -53 -302 0 -138 4 -225 12 -248
21 -60 171 -156 311 -199 l68 -21 2157 0 c2391 0 2202 -5 2348 67 91 44 160
93 184 130 17 25 19 50 19 268 0 340 10 328 -280 335 l-195 5 -5 1195 -5 1195
-22 46 c-28 56 -74 104 -127 132 -39 21 -55 22 -349 25 l-309 3 7 27 c20 77
35 209 35 307 0 492 -284 947 -729 1170 -218 109 -503 156 -749 124z m378
-293 c385 -82 684 -368 787 -755 23 -83 26 -116 26 -251 0 -135 -3 -168 -26
-251 -78 -294 -255 -515 -531 -664 -101 -55 -126 -85 -126 -157 0 -54 33 -102
87 -124 47 -20 71 -17 139 15 l60 28 68 -45 c153 -102 322 -294 401 -456 66
-135 154 -547 141 -661 -11 -97 51 -175 139 -175 94 0 144 71 145 204 0 197
-91 599 -173 762 -100 198 -281 408 -466 541 -2 1 24 32 58 68 70 75 156 188
196 258 l27 47 319 0 319 0 0 -1160 0 -1160 -647 0 c-626 0 -649 -1 -680 -20
-18 -10 -41 -37 -53 -60 l-20 -40 -403 0 -402 1 -19 40 c-10 23 -33 49 -50 60
-30 18 -59 19 -663 19 l-633 0 0 1160 0 1159 306 3 305 3 26 -45 c50 -86 117
-176 190 -251 l74 -76 -43 -34 c-171 -132 -335 -326 -423 -500 -54 -106 -141
-766 -114 -864 31 -111 176 -140 245 -49 25 32 27 45 36 177 8 140 45 426 72
550 30 146 222 376 423 509 l56 37 61 -31 c83 -42 222 -88 265 -88 68 0 141
69 141 133 0 36 -22 87 -47 110 -11 10 -63 33 -116 51 -338 118 -567 357 -674
702 -25 83 -27 101 -27 274 0 173 2 191 27 275 58 189 145 333 280 462 45 43
108 95 140 116 127 84 299 149 446 167 83 11 246 4 331 -14z m-845 -4253 c11
-20 33 -46 48 -57 28 -21 37 -21 582 -21 545 0 554 0 582 21 15 11 37 37 48
57 l20 37 818 0 817 0 0 -89 0 -88 -62 -29 -63 -29 -2145 0 -2145 0 -57 29
-58 28 0 89 0 89 798 0 797 0 20 -37z"/>
<path d="M2199 4180 c-155 -27 -173 -249 -24 -305 137 -53 263 87 199 221 -30
62 -101 97 -175 84z"/>
<path d="M2845 4180 c-107 -23 -162 -129 -115 -224 48 -101 167 -125 249 -50
120 108 23 307 -134 274z"/>
<path d="M2191 3642 c-45 -22 -71 -59 -78 -109 -5 -42 15 -96 46 -121 98 -79
221 -123 366 -129 125 -6 197 7 305 58 121 57 160 101 160 183 0 36 -6 52 -30
80 -35 39 -88 61 -130 53 -15 -3 -53 -22 -85 -41 -123 -74 -234 -75 -379 -2
-102 51 -125 54 -175 28z"/>
<path d="M2525 2606 c-16 -7 -40 -24 -52 -38 -25 -26 -393 -1045 -393 -1086 0
-13 7 -39 16 -57 16 -34 371 -382 411 -403 33 -18 94 -14 128 8 17 10 112 99
212 197 153 150 183 185 194 222 13 43 11 48 -155 550 -93 278 -177 523 -188
544 -13 27 -32 44 -61 58 -49 22 -71 23 -112 5z m130 -1169 l-90 -84 -87 80
c-49 44 -88 84 -88 89 0 9 145 420 170 483 12 29 17 18 98 -227 l87 -257 -90
-84z"/>
<path d="M1703 1990 c-69 -15 -113 -69 -113 -137 0 -15 18 -78 39 -139 l40
-112 4 -233 c4 -253 8 -275 62 -317 42 -33 90 -37 143 -10 79 40 81 50 77 348
l-3 258 -42 123 c-23 68 -48 136 -56 151 -26 50 -93 80 -151 68z"/>
<path d="M3395 1990 c-72 -15 -105 -67 -165 -255 -32 -100 -32 -100 -34 -345
-3 -219 -1 -249 15 -285 46 -101 172 -106 243 -11 20 25 21 45 26 279 l6 252
37 95 c20 52 37 112 37 133 0 91 -78 155 -165 137z"/>
</g>
</svg>
